<?xml version="1.0" encoding="utf-8"?>
<!-- Svg Vector Icons : http://www.onlinewebfonts.com/icon -->
<!DOCTYPE svg PUBLIC "-//W3C//DTD SVG 1.1//EN" "http://www.w3.org/Graphics/SVG/1.1/DTD/svg11.dtd">
<svg version="1.1" xmlns="http://www.w3.org/2000/svg" xmlns:xlink="http://www.w3.org/1999/xlink" x="0px" y="0px" viewBox="0 0 1000 1000" enable-background="new 0 0 1000 1000" xml:space="preserve">
<metadata> Svg Vector Icons : http://www.onlinewebfonts.com/icon </metadata>
<g><g transform="matrix(1 0 0 -1 0 1920)"><path d="M56.1,989.9c-9.5,0-17.7,1.5-24.7,4.5c-7,3-12.3,7.2-15.9,12.7c-3.6,5.5-5.4,11.7-5.4,18.7c0,9.2,2.9,18.9,8.6,28.8l443.9,768.7c10.2,17.7,22.7,26.6,37.5,26.6c14.7,0,27.2-8.9,37.5-26.6l443.9-768.7c5.7-10,8.6-19.6,8.6-28.8c0-10.7-4.1-19.4-12.4-26s-19.5-9.9-33.7-9.9H56.1z M485.8,1252.2H515c4.7,0,9.4,3.2,14,9.6c4.6,6.4,7.4,12.4,8.4,18.2l33.7,103.8c2.5,12.2,3.7,24.6,3.7,37.1v149.8c0,5.2-1.8,9.7-5.4,13.3c-3.6,3.6-8.1,5.4-13.3,5.4H443.8c-5.2,0-9.7-1.8-13.3-5.4c-3.6-3.6-5.4-8.1-5.4-13.3v-149.8c0-15.5,1.2-29.5,3.7-42l34.5-98.9c1.2-6,4.1-12.1,8.6-18.4C476.4,1255.3,481,1252.2,485.8,1252.2z M443.8,1064.9h112.4c5.2,0,9.7,1.8,13.3,5.4c3.6,3.6,5.4,8.1,5.4,13.3V1196c0,5.2-1.8,9.7-5.4,13.3s-8.1,5.4-13.3,5.4H443.8c-5.2,0-9.7-1.8-13.3-5.4c-3.6-3.6-5.4-8.1-5.4-13.3v-112.4c0-5.2,1.8-9.7,5.4-13.3C434.1,1066.7,438.6,1064.9,443.8,1064.9z"/></g></g>
</svg>