<?xml version="1.0" encoding="utf-8"?>
<!-- Svg Vector Icons : http://www.onlinewebfonts.com/icon -->
<!DOCTYPE svg PUBLIC "-//W3C//DTD SVG 1.1//EN" "http://www.w3.org/Graphics/SVG/1.1/DTD/svg11.dtd">
<svg version="1.1" xmlns="http://www.w3.org/2000/svg" xmlns:xlink="http://www.w3.org/1999/xlink" x="0px" y="0px" viewBox="0 0 1000 1000" enable-background="new 0 0 1000 1000" xml:space="preserve">
<metadata> Svg Vector Icons : http://www.onlinewebfonts.com/icon </metadata>
<g><g transform="translate(0.000000,511.000000) scale(0.100000,-0.100000)"><path d="M4699.3,4994.7c-1215-116.6-2139.6-898-2368.7-1996.4c-81.8-398.9-57.3-881.6,71.6-1386.9c45-173.9,85.9-388.7,94.1-497.1l14.3-188.2l94.1-71.6c128.9-92,274.1-251.6,325.2-349.8c63.4-122.7,88-243.4,106.4-493c14.3-202.5,24.6-247.5,85.9-378.4c216.8-450,738.4-889.8,1274.4-1073.9c180-61.4,448-108.4,613.7-108.4c705.7,0,1560.7,542.1,1867.6,1182.3c65.4,137.1,73.6,173.9,87.9,398.9c8.2,137.1,24.6,278.2,34.8,310.9c55.2,180,202.5,372.3,392.8,511.4l94.1,67.5l22.5,243.4c14.3,139.1,51.1,329.3,85.9,452.1c87.9,302.7,112.5,484.8,112.5,853c0,353.9-28.7,560.5-118.7,822.3C7205.1,4426.1,6018.7,5123.6,4699.3,4994.7z M4126.5,2838.7c149.3-69.5,304.8-239.3,362.1-394.8c59.3-153.4,49.1-396.8-18.4-540c-141.1-294.6-462.3-464.3-765-405c-235.2,45-413.2,178-515.5,380.5c-81.8,161.6-94.1,396.8-30.7,564.6c77.7,206.6,284.3,392.7,499.1,448C3776.8,2922.6,4003.8,2898.1,4126.5,2838.7z M6501.4,2830.6c302.7-149.3,454.1-474.6,372.3-799.8c-83.9-325.2-353.9-538-687.3-538s-603.4,212.7-687.3,538C5351.8,2613.7,5957.3,3098.5,6501.4,2830.6z M5096.1,1566.4c165.7-77.7,345.7-458.2,355.9-746.6c4.1-79.8-6.1-108.4-42.9-149.3c-161.6-171.8-793.7-137.1-853,45c-67.5,200.4,155.5,750.7,341.6,848.9C4985.7,1609.4,5006.1,1609.4,5096.1,1566.4z"/><path d="M2121.9-1141.9c-200.5-98.2-321.1-335.5-274.1-538c20.5-92.1,20.5-106.4-12.3-130.9c-159.6-112.5-229.1-241.4-231.1-419.3c0-139.1,32.7-225,122.7-329.3c90-100.2,206.6-157.5,351.8-169.8c153.4-14.3,276.1,20.4,417.3,118.7c61.4,45,124.8,79.8,137,79.8c20.5,0,746.6-263.9,1067.8-388.7c59.3-22.5,32.7-34.8-509.3-235.2L2619-3367.4l-59.3,51.1c-313,263.9-754.8,204.6-906.2-122.7c-98.2-210.7-36.8-482.7,137.1-603.4c71.6-49.1,77.7-57.3,63.4-124.8c-67.5-329.3,157.5-619.8,476.6-619.8c282.3,0,527.7,227,574.8,531.8c10.2,67.5,22.5,90,67.5,104.3c28.6,10.2,490.9,182.1,1026.9,380.5c533.9,198.4,983.9,360,1000.3,360s466.4-161.6,1000.3-360c535.9-198.4,998.2-370.2,1026.8-380.5c43-14.3,55.2-38.9,75.7-135c73.7-351.8,386.6-572.8,691.4-484.8c259.8,75.7,407.1,329.3,351.8,603.4c-14.3,67.5-10.2,75.7,63.4,128.9c239.3,167.7,245.5,572.8,10.2,769.1c-210.7,173.9-511.4,157.5-781.4-45l-65.5-49.1l-560.5,206.6c-308.9,114.6-556.4,212.7-548.2,218.9c24.6,22.5,1075.9,407.1,1110.7,407.1c18.4,0,47.1-16.4,67.5-36.8c18.4-22.5,85.9-65.4,151.4-98.2c100.2-51.1,139.1-59.3,280.2-59.3c190.2,2.1,290.5,43,398.9,165.7c90,104.3,122.7,190.2,122.7,329.3c-2.1,153.4-51.2,261.8-171.8,368.2l-96.1,83.9l22.5,94.1c38.9,171.8-24.6,347.7-165.7,470.5c-110.5,94.1-196.4,120.7-351.8,110.4c-272.1-18.4-456.2-194.3-529.8-503.2c-26.6-106.4-26.6-106.4-159.6-157.5c-73.6-26.6-540-200.5-1037.1-386.6L5000-2485.8l-904.1,335.5c-1221.2,454.1-1182.3,437.7-1182.3,468.4c0,92.1-90,300.7-167.7,388.7C2582.2-1109.2,2318.3-1043.7,2121.9-1141.9z"/></g></g>
</svg>